<?xml version="1.0" encoding="UTF-8" standalone="no"?>
<!-- Created with Inkscape (http://www.inkscape.org/) -->

<svg
   xmlns:dc="http://purl.org/dc/elements/1.1/"
   xmlns:cc="http://creativecommons.org/ns#"
   xmlns:rdf="http://www.w3.org/1999/02/22-rdf-syntax-ns#"
   xmlns:svg="http://www.w3.org/2000/svg"
   xmlns="http://www.w3.org/2000/svg"
   xmlns:sodipodi="http://sodipodi.sourceforge.net/DTD/sodipodi-0.dtd"
   xmlns:inkscape="http://www.inkscape.org/namespaces/inkscape"
   width="136.51399mm"
   height="22.99818mm"
   viewBox="0 0 136.51399 22.99818"
   version="1.1"
   id="svg8"
   inkscape:version="0.92.3 (2405546, 2018-03-11)"
   sodipodi:docname="CUAnschutz.svg">
  <defs
     id="defs2">
    <style
       id="style2">.cls-1{fill:#002169;}.cls-2{fill:#fff;}</style>
  </defs>
  <sodipodi:namedview
     id="base"
     pagecolor="#ffffff"
     bordercolor="#666666"
     borderopacity="1.0"
     inkscape:pageopacity="0.0"
     inkscape:pageshadow="2"
     inkscape:zoom="2.8"
     inkscape:cx="97.417089"
     inkscape:cy="-118.34914"
     inkscape:document-units="mm"
     inkscape:current-layer="layer1"
     showgrid="false"
     fit-margin-top="0"
     fit-margin-left="0"
     fit-margin-right="0"
     fit-margin-bottom="0"
     inkscape:window-width="1600"
     inkscape:window-height="1691"
     inkscape:window-x="1600"
     inkscape:window-y="0"
     inkscape:window-maximized="1" />
  <metadata
     id="metadata5">
    <rdf:RDF>
      <cc:Work
         rdf:about="">
        <dc:format>image/svg+xml</dc:format>
        <dc:type
           rdf:resource="http://purl.org/dc/dcmitype/StillImage" />
        <dc:title></dc:title>
      </cc:Work>
    </rdf:RDF>
  </metadata>
  <g
     inkscape:label="Layer 1"
     inkscape:groupmode="layer"
     id="layer1"
     transform="translate(-2.149374,-138.37772)">
    <g
       id="g3054"
       transform="matrix(0.90543895,0,0,0.90543895,-25.96746,-61.315051)">
      <g
         id="g2740"
         inkscape:label="ink_ext_XXXXXX"
         transform="matrix(0.35277777,0,0,-0.35277777,29.455381,246.19183)">
        <g
           transform="translate(-184.17857,-77.021884)"
           id="g2980">
          <path
             d="m 242.592,131.568 v 8.269 l -9.853,9.876 h -34.145 l -9.886,-9.874 v -34.086 l 9.886,-9.8675 h 10.844 v -8.2937 l 9.965,-9.8789 h 28.812 l 9.991,9.8691 v 26.406 h 5.085 v 17.58 h -20.699"
             style="fill:#ccb567;fill-opacity:1;fill-rule:nonzero;stroke:none;stroke-width:0.1"
             id="path2744"
             inkscape:connector-curvature="0" />
          <path
             d="m 232.317,148.689 9.25,-9.276 v -8.871 h 20.699 v -15.535 h -5.088 V 88.0117 l -9.383,-9.2734 h -27.974 l -9.358,9.2734 v 8.8973 h -11.447 l -9.283,9.274 v 33.23 l 9.283,9.276 h 33.301"
             style="fill:#231f20;fill-opacity:1;fill-rule:nonzero;stroke:none;stroke-width:0.1"
             id="path2746"
             inkscape:connector-curvature="0" />
          <path
             d="m 200.078,99.4715 h 12.945 V 89.0824 l 7.852,-7.7836 h 25.868 l 7.875,7.7836 v 28.4886 h 5.089 v 10.411 H 244.092 V 91.698 H 223.43 v 7.7735 h 7.82 l 7.758,7.7735 v 10.326 h -10.406 v -7.716 h -5.172 v 18.127 h -15.57 v -10.411 h 5.163 v -7.716 h -10.347 v 25.965 h 25.926 v -7.838 h 10.406 v 10.369 l -7.758,7.778 h -31.172 l -7.788,-7.776 v -31.108 l 7.788,-7.7735"
             style="fill:#ffffff;fill-opacity:1;fill-rule:nonzero;stroke:none;stroke-width:0.1"
             id="path2748"
             inkscape:connector-curvature="0" />
          <path
             d="m 222.147,100.753 h 8.574 l 7.006,7.018 v 8.519 h -7.842 v -7.714 h -7.738 v 18.122 h -13.008 v -7.849 h 5.166 v -10.273 h -12.906 v 28.521 h 28.486 v -7.836 h 7.842 v 8.561 l -7.006,7.027 h -30.113 l -7.036,-7.027 v -30.051 l 7.033,-7.018 h 13.7 V 89.6156 l 7.1,-7.0394 h 24.81 l 7.123,7.0457 v 29.2271 h 5.086 v 7.849 H 245.373 V 90.4203 h -23.226 v 10.3327"
             style="fill:#ccb567;fill-opacity:1;fill-rule:nonzero;stroke:none;stroke-width:0.1"
             id="path2750"
             inkscape:connector-curvature="0" />
        </g>
        <g
           id="g2974">
          <path
             d="m 89.323,59.8391 h 2.0403 v -13.259 c -0.0305,-4.9801 2.3398,-6.8699 6.2695,-6.8699 3.9602,0 6.3292,1.8898 6.3002,6.8699 v 13.259 h 2.04 v -13.709 c 0,-4.4102 -2.371,-8.1602 -8.3402,-8.1602 -5.9406,0 -8.3098,3.75 -8.3098,8.1602 v 13.709"
             style="fill:#231f20;fill-opacity:1;fill-rule:nonzero;stroke:none;stroke-width:0.1"
             id="path2752"
             inkscape:connector-curvature="0" />
          <path
             d="m 109.51,53.8996 h 1.89 v -2.6699 h 0.06 c 0.69,1.8594 2.76,3.1199 4.95,3.1199 4.35,0 5.67,-2.2801 5.67,-5.9695 v -9.9602 h -1.891 v 9.659 c 0,2.6703 -0.87,4.6809 -3.929,4.6809 -3,0 -4.8,-2.2801 -4.86,-5.311 v -9.0289 h -1.89 v 15.4797"
             style="fill:#231f20;fill-opacity:1;fill-rule:nonzero;stroke:none;stroke-width:0.1"
             id="path2754"
             inkscape:connector-curvature="0" />
          <path
             d="m 125.451,53.8996 h 1.89 V 38.4199 h -1.89 z m 0,5.9395 h 1.89 v -3.0293 h -1.89 v 3.0293"
             style="fill:#231f20;fill-opacity:1;fill-rule:nonzero;stroke:none;stroke-width:0.1"
             id="path2756"
             inkscape:connector-curvature="0" />
          <path
             d="m 129.104,53.8996 h 2.101 l 4.859,-13.5894 h 0.061 l 4.8,13.5894 h 1.949 l -5.789,-15.4797 h -2.011 l -5.97,15.4797"
             style="fill:#231f20;fill-opacity:1;fill-rule:nonzero;stroke:none;stroke-width:0.1"
             id="path2758"
             inkscape:connector-curvature="0" />
          <path
             d="m 155.213,47.2391 c -0.09,2.8507 -1.861,5.5207 -4.92,5.5207 -3.09,0 -4.8,-2.7 -5.1,-5.5207 z M 145.193,45.65 c 0.03,-2.7602 1.47,-6.0898 5.1,-6.0898 2.76,0 4.26,1.6199 4.859,3.9597 h 1.891 c -0.811,-3.5097 -2.851,-5.55 -6.75,-5.55 -4.92,0 -6.99,3.7801 -6.99,8.1891 0,4.0805 2.07,8.1906 6.99,8.1906 4.979,0 6.96,-4.3504 6.809,-8.6996 h -11.909"
             style="fill:#231f20;fill-opacity:1;fill-rule:nonzero;stroke:none;stroke-width:0.1"
             id="path2760"
             inkscape:connector-curvature="0" />
          <path
             d="m 159.611,53.8996 h 1.741 v -3.6301 h 0.059 c 0.96,2.4903 3.061,3.9602 5.85,3.8399 v -1.8895 c -3.42,0.1797 -5.76,-2.3398 -5.76,-5.55 v -8.25 h -1.89 v 15.4797"
             style="fill:#231f20;fill-opacity:1;fill-rule:nonzero;stroke:none;stroke-width:0.1"
             id="path2762"
             inkscape:connector-curvature="0" />
          <path
             d="m 178.234,49.3691 c -0.09,2.3399 -1.889,3.3907 -4.049,3.3907 -1.68,0 -3.661,-0.6602 -3.661,-2.67 0,-1.6808 1.92,-2.2796 3.21,-2.6097 l 2.521,-0.5711 c 2.16,-0.3289 4.409,-1.5899 4.409,-4.2891 0,-3.3597 -3.329,-4.65 -6.209,-4.65 -3.601,0 -6.061,1.6801 -6.36,5.4602 h 1.89 c 0.15,-2.55 2.039,-3.8699 4.56,-3.8699 1.769,0 4.229,0.7796 4.229,2.9398 0,1.8 -1.679,2.4 -3.389,2.8191 l -2.43,0.5399 c -2.46,0.6609 -4.32,1.5 -4.32,4.1402 0,3.1504 3.09,4.3504 5.82,4.3504 3.09,0 5.55,-1.6199 5.669,-4.9805 h -1.89"
             style="fill:#231f20;fill-opacity:1;fill-rule:nonzero;stroke:none;stroke-width:0.1"
             id="path2764"
             inkscape:connector-curvature="0" />
          <path
             d="m 183.233,53.8996 h 1.89 V 38.4199 h -1.89 z m 0,5.9395 h 1.89 v -3.0293 h -1.89 v 3.0293"
             style="fill:#231f20;fill-opacity:1;fill-rule:nonzero;stroke:none;stroke-width:0.1"
             id="path2766"
             inkscape:connector-curvature="0" />
          <path
             d="m 191.549,53.8996 h 3.149 v -1.5898 h -3.149 V 41.8699 c 0,-1.2301 0.179,-1.95 1.53,-2.0398 0.54,0 1.08,0.0289 1.619,0.0898 V 38.3 c -0.569,0 -1.109,-0.0602 -1.679,-0.0602 -2.52,0 -3.39,0.8403 -3.36,3.4801 v 10.5899 h -2.7 v 1.5898 h 2.7 v 4.6492 h 1.89 v -4.6492"
             style="fill:#231f20;fill-opacity:1;fill-rule:nonzero;stroke:none;stroke-width:0.1"
             id="path2768"
             inkscape:connector-curvature="0" />
          <path
             d="m 196.042,53.8996 h 2.011 l 5.099,-13.1996 4.77,13.1996 h 1.889 L 203.092,36.05 c -1.08,-2.609 -1.71,-3.359 -4.079,-3.359 -0.75,0.0289 -1.141,0.0289 -1.441,0.1488 v 1.5903 c 0.45,-0.0903 0.87,-0.15 1.29,-0.15 1.68,0 2.071,0.991 2.7,2.4301 l 0.66,1.7699 -6.18,15.4195"
             style="fill:#231f20;fill-opacity:1;fill-rule:nonzero;stroke:none;stroke-width:0.1"
             id="path2770"
             inkscape:connector-curvature="0" />
          <path
             d="m 218.122,46.159 c 0,-3.3 1.8,-6.5988 5.43,-6.5988 3.63,0 5.429,3.2988 5.429,6.5988 0,3.3 -1.799,6.6008 -5.429,6.6008 -3.63,0 -5.43,-3.3008 -5.43,-6.6008 z m 12.749,0 c 0,-4.4391 -2.58,-8.1891 -7.319,-8.1891 -4.741,0 -7.321,3.75 -7.321,8.1891 0,4.4406 2.58,8.1906 7.321,8.1906 4.739,0 7.319,-3.75 7.319,-8.1906"
             style="fill:#231f20;fill-opacity:1;fill-rule:nonzero;stroke:none;stroke-width:0.1"
             id="path2772"
             inkscape:connector-curvature="0" />
          <path
             d="m 239.011,52.3098 h -3.06 V 38.4199 h -1.89 v 13.8899 h -2.64 v 1.5898 h 2.64 v 1.4102 c -0.03,2.6699 0.72,4.5293 3.75,4.5293 0.54,0 0.99,-0.0305 1.59,-0.1203 v -1.6192 c -0.51,0.0899 -0.93,0.1496 -1.381,0.1496 -2.099,0 -2.039,-1.3203 -2.069,-3 v -1.3496 h 3.06 v -1.5898"
             style="fill:#231f20;fill-opacity:1;fill-rule:nonzero;stroke:none;stroke-width:0.1"
             id="path2774"
             inkscape:connector-curvature="0" />
          <path
             d="m 265.17,53.3594 c -0.72,3.3 -3.45,5.1894 -6.569,5.1894 -5.67,0 -8.071,-4.739 -8.071,-9.4187 0,-4.6813 2.401,-9.4199 8.071,-9.4199 3.959,0 6.479,3.0597 6.869,6.8699 h 2.04 c -0.571,-5.25 -3.9,-8.6102 -8.909,-8.6102 -6.75,0 -10.111,5.309 -10.111,11.1602 0,5.8496 3.361,11.159 10.111,11.159 4.049,0 8.069,-2.4297 8.609,-6.9297 h -2.04"
             style="fill:#231f20;fill-opacity:1;fill-rule:nonzero;stroke:none;stroke-width:0.1"
             id="path2776"
             inkscape:connector-curvature="0" />
          <path
             d="m 271.258,46.159 c 0,-3.3 1.8,-6.5988 5.429,-6.5988 3.63,0 5.43,3.2988 5.43,6.5988 0,3.3 -1.8,6.6008 -5.43,6.6008 -3.629,0 -5.429,-3.3008 -5.429,-6.6008 z m 12.749,0 c 0,-4.4391 -2.58,-8.1891 -7.32,-8.1891 -4.74,0 -7.32,3.75 -7.32,8.1891 0,4.4406 2.58,8.1906 7.32,8.1906 4.74,0 7.32,-3.75 7.32,-8.1906"
             style="fill:#231f20;fill-opacity:1;fill-rule:nonzero;stroke:none;stroke-width:0.1"
             id="path2778"
             inkscape:connector-curvature="0" />
          <path
             d="m 286.668,59.8391 h 1.89 V 38.4199 h -1.89 v 21.4192"
             style="fill:#231f20;fill-opacity:1;fill-rule:nonzero;stroke:none;stroke-width:0.1"
             id="path2780"
             inkscape:connector-curvature="0" />
          <path
             d="m 293.061,46.159 c 0,-3.3 1.799,-6.5988 5.429,-6.5988 3.63,0 5.43,3.2988 5.43,6.5988 0,3.3 -1.8,6.6008 -5.43,6.6008 -3.63,0 -5.429,-3.3008 -5.429,-6.6008 z m 12.749,0 c 0,-4.4391 -2.581,-8.1891 -7.32,-8.1891 -4.74,0 -7.32,3.75 -7.32,8.1891 0,4.4406 2.58,8.1906 7.32,8.1906 4.739,0 7.32,-3.75 7.32,-8.1906"
             style="fill:#231f20;fill-opacity:1;fill-rule:nonzero;stroke:none;stroke-width:0.1"
             id="path2782"
             inkscape:connector-curvature="0" />
          <path
             d="m 308.423,53.8996 h 1.74 v -3.6301 h 0.06 c 0.96,2.4903 3.06,3.9602 5.849,3.8399 v -1.8895 c -3.42,0.1797 -5.76,-2.3398 -5.76,-5.55 v -8.25 h -1.889 v 15.4797"
             style="fill:#231f20;fill-opacity:1;fill-rule:nonzero;stroke:none;stroke-width:0.1"
             id="path2784"
             inkscape:connector-curvature="0" />
          <path
             d="m 327.445,46.8801 h -0.059 c -0.241,-0.45 -1.08,-0.6012 -1.59,-0.6903 -3.21,-0.5707 -7.2,-0.5398 -7.2,-3.5699 0,-1.8898 1.68,-3.0597 3.45,-3.0597 2.88,0 5.43,1.8296 5.399,4.8597 z m -10.079,2.2789 c 0.18,3.6301 2.73,5.1906 6.27,5.1906 2.729,0 5.7,-0.8398 5.7,-4.9805 V 41.15 c 0,-0.7199 0.359,-1.1398 1.109,-1.1398 0.21,0 0.45,0.0597 0.601,0.1199 v -1.5903 c -0.42,-0.0898 -0.721,-0.1199 -1.231,-0.1199 -1.92,0 -2.219,1.0801 -2.219,2.7 h -0.061 c -1.319,-2.0097 -2.669,-3.15 -5.64,-3.15 -2.849,0 -5.189,1.4102 -5.189,4.5301 0,4.35 4.23,4.5 8.31,4.9801 1.559,0.1789 2.429,0.389 2.429,2.0988 0,2.55 -1.83,3.1809 -4.05,3.1809 -2.339,0 -4.079,-1.0801 -4.139,-3.6008 h -1.89"
             style="fill:#231f20;fill-opacity:1;fill-rule:nonzero;stroke:none;stroke-width:0.1"
             id="path2786"
             inkscape:connector-curvature="0" />
          <path
             d="m 339.031,39.5602 c 4.02,0 5.43,3.3898 5.43,6.5988 0,3.2101 -1.41,6.6008 -5.43,6.6008 -3.599,0 -5.069,-3.3907 -5.069,-6.6008 0,-3.209 1.47,-6.5988 5.069,-6.5988 z m 7.32,-1.1403 h -1.74 v 2.9391 h -0.06 c -0.81,-2.009 -3.27,-3.3891 -5.52,-3.3891 -4.71,0 -6.96,3.809 -6.96,8.1891 0,4.3801 2.25,8.1906 6.96,8.1906 2.31,0 4.56,-1.1699 5.37,-3.3906 h 0.06 v 8.8801 h 1.89 V 38.4199"
             style="fill:#231f20;fill-opacity:1;fill-rule:nonzero;stroke:none;stroke-width:0.1"
             id="path2788"
             inkscape:connector-curvature="0" />
          <path
             d="m 350.854,46.159 c 0,-3.3 1.8,-6.5988 5.43,-6.5988 3.63,0 5.43,3.2988 5.43,6.5988 0,3.3 -1.8,6.6008 -5.43,6.6008 -3.63,0 -5.43,-3.3008 -5.43,-6.6008 z m 12.749,0 c 0,-4.4391 -2.58,-8.1891 -7.319,-8.1891 -4.74,0 -7.32,3.75 -7.32,8.1891 0,4.4406 2.58,8.1906 7.32,8.1906 4.739,0 7.319,-3.75 7.319,-8.1906"
             style="fill:#231f20;fill-opacity:1;fill-rule:nonzero;stroke:none;stroke-width:0.1"
             id="path2790"
             inkscape:connector-curvature="0" />
        </g>
        <g
           transform="translate(-21.318)"
           id="g3003">
          <path
             d="m 116.04,14.8191 h 8.43 l -4.14,10.9797 z m 3.24,13.02 h 2.281 L 129.96,6.41992 h -2.191 l -2.609,6.66018 h -9.75 l -2.58,-6.66018 h -2.189 l 8.639,21.41918"
             style="fill:#231f20;fill-opacity:1;fill-rule:nonzero;stroke:none;stroke-width:0.1"
             id="path2806"
             inkscape:connector-curvature="0" />
          <path
             d="m 131.612,21.9 h 1.891 v -2.6699 h 0.059 c 0.691,1.859 2.76,3.1199 4.951,3.1199 4.349,0 5.67,-2.2809 5.67,-5.9699 V 6.41992 h -1.891 v 9.65898 c 0,2.6699 -0.87,4.6813 -3.93,4.6813 -3,0 -4.8,-2.2801 -4.859,-5.3114 V 6.41992 h -1.891 V 21.9"
             style="fill:#231f20;fill-opacity:1;fill-rule:nonzero;stroke:none;stroke-width:0.1"
             id="path2808"
             inkscape:connector-curvature="0" />
          <path
             d="m 156.716,17.3691 c -0.09,2.3399 -1.89,3.3911 -4.05,3.3911 -1.68,0 -3.659,-0.6602 -3.659,-2.6704 0,-1.6808 1.92,-2.2796 3.209,-2.6097 l 2.52,-0.5711 c 2.16,-0.3289 4.409,-1.5899 4.409,-4.2891 0,-3.35974 -3.329,-4.64998 -6.209,-4.64998 -3.6,0 -6.06,1.68008 -6.36,5.46018 h 1.891 c 0.149,-2.55002 2.039,-3.86994 4.559,-3.86994 1.77,0 4.23,0.77968 4.23,2.93984 0,1.8 -1.68,2.4 -3.39,2.8191 l -2.43,0.5399 c -2.459,0.6609 -4.32,1.5 -4.32,4.1398 0,3.1512 3.09,4.3512 5.82,4.3512 3.09,0 5.55,-1.6199 5.67,-4.9809 h -1.89"
             style="fill:#231f20;fill-opacity:1;fill-rule:nonzero;stroke:none;stroke-width:0.1"
             id="path2810"
             inkscape:connector-curvature="0" />
          <path
             d="m 172.55,17.0391 c -0.51,2.3109 -1.92,3.7211 -4.38,3.7211 -3.63,0 -5.43,-3.3012 -5.43,-6.6012 0,-3.3 1.8,-6.59884 5.43,-6.59884 2.34,0 4.26,1.82968 4.5,4.40974 h 1.89 c -0.51,-3.7199 -2.941,-5.99998 -6.39,-5.99998 -4.74,0 -7.32,3.75 -7.32,8.18908 0,4.441 2.58,8.191 7.32,8.191 3.3,0 5.849,-1.7711 6.269,-5.3109 h -1.889"
             style="fill:#231f20;fill-opacity:1;fill-rule:nonzero;stroke:none;stroke-width:0.1"
             id="path2812"
             inkscape:connector-curvature="0" />
          <path
             d="m 177.019,27.8391 h 1.891 v -8.609 h 0.06 c 0.69,1.859 2.759,3.1199 4.95,3.1199 4.349,0 5.67,-2.2809 5.67,-5.9699 V 6.41992 h -1.891 v 9.65898 c 0,2.6699 -0.87,4.6813 -3.93,4.6813 -3,0 -4.799,-2.2801 -4.859,-5.3114 V 6.41992 h -1.891 V 27.8391"
             style="fill:#231f20;fill-opacity:1;fill-rule:nonzero;stroke:none;stroke-width:0.1"
             id="path2814"
             inkscape:connector-curvature="0" />
          <path
             d="m 205.42,6.41992 h -1.74 v 2.79024 h -0.061 C 202.63,7.13984 200.59,5.96992 198.28,5.96992 c -3.9,0 -5.43,2.28008 -5.43,5.88008 V 21.9 h 1.89 V 11.8191 c 0.09,-2.78902 1.14,-4.25894 4.14,-4.25894 3.24,0 4.649,3.05974 4.649,6.20974 V 21.9 h 1.891 V 6.41992"
             style="fill:#231f20;fill-opacity:1;fill-rule:nonzero;stroke:none;stroke-width:0.1"
             id="path2816"
             inkscape:connector-curvature="0" />
          <path
             d="m 211.863,21.9 h 3.15 v -1.5898 h -3.15 V 9.86992 c 0,-1.23008 0.18,-1.95 1.531,-2.03984 0.54,0 1.08,0.0289 1.619,0.08984 V 6.3 c -0.57,0 -1.11,-0.06016 -1.68,-0.06016 -2.52,0 -3.39,0.84024 -3.359,3.48008 V 20.3102 h -2.701 V 21.9 h 2.701 v 4.6488 h 1.889 V 21.9"
             style="fill:#231f20;fill-opacity:1;fill-rule:nonzero;stroke:none;stroke-width:0.1"
             id="path2818"
             inkscape:connector-curvature="0" />
          <path
             d="m 218.826,8.01016 h 10.651 V 6.41992 h -12.93 V 7.95 l 10.109,12.3602 h -9.42 V 21.9 h 11.82 V 20.55 L 218.826,8.01016"
             style="fill:#231f20;fill-opacity:1;fill-rule:nonzero;stroke:none;stroke-width:0.1"
             id="path2820"
             inkscape:connector-curvature="0" />
          <path
             d="m 240.426,27.8391 h 3 l 7.41,-18.77894 7.38,18.77894 h 2.999 V 6.41992 h -2.039 V 24.9289 h -0.061 L 251.796,6.41992 h -1.92 l -7.35,18.50898 h -0.06 V 6.41992 h -2.04 V 27.8391"
             style="fill:#231f20;fill-opacity:1;fill-rule:nonzero;stroke:none;stroke-width:0.1"
             id="path2822"
             inkscape:connector-curvature="0" />
          <path
             d="m 276.139,15.2391 c -0.09,2.8507 -1.861,5.5211 -4.92,5.5211 -3.09,0 -4.8,-2.7 -5.1,-5.5211 z M 266.119,13.65 c 0.029,-2.7602 1.47,-6.08984 5.1,-6.08984 2.759,0 4.259,1.61992 4.859,3.95974 h 1.891 c -0.811,-3.50974 -2.851,-5.54998 -6.75,-5.54998 -4.92,0 -6.991,3.78008 -6.991,8.18908 0,4.0801 2.071,8.191 6.991,8.191 4.979,0 6.96,-4.3512 6.809,-8.7 h -11.909"
             style="fill:#231f20;fill-opacity:1;fill-rule:nonzero;stroke:none;stroke-width:0.1"
             id="path2824"
             inkscape:connector-curvature="0" />
          <path
             d="m 286.807,7.56016 c 4.019,0 5.429,3.38984 5.429,6.59884 0,3.2101 -1.41,6.6012 -5.429,6.6012 -3.6,0 -5.07,-3.3911 -5.07,-6.6012 0,-3.209 1.47,-6.59884 5.07,-6.59884 z m 7.319,-1.14024 h -1.739 v 2.93906 h -0.061 C 291.517,7.35 289.057,5.96992 286.807,5.96992 c -4.71,0 -6.96,3.80899 -6.96,8.18908 0,4.3801 2.25,8.191 6.96,8.191 2.309,0 4.559,-1.1699 5.37,-3.391 h 0.059 v 8.8801 h 1.89 V 6.41992"
             style="fill:#231f20;fill-opacity:1;fill-rule:nonzero;stroke:none;stroke-width:0.1"
             id="path2826"
             inkscape:connector-curvature="0" />
          <path
             d="m 297.52,21.9 h 1.889 V 6.41992 h -1.889 z m 0,5.9391 h 1.889 v -3.0289 h -1.889 v 3.0289"
             style="fill:#231f20;fill-opacity:1;fill-rule:nonzero;stroke:none;stroke-width:0.1"
             id="path2828"
             inkscape:connector-curvature="0" />
          <path
             d="m 313.722,17.0391 c -0.51,2.3109 -1.92,3.7211 -4.38,3.7211 -3.63,0 -5.43,-3.3012 -5.43,-6.6012 0,-3.3 1.8,-6.59884 5.43,-6.59884 2.34,0 4.26,1.82968 4.5,4.40974 h 1.889 c -0.509,-3.7199 -2.94,-5.99998 -6.389,-5.99998 -4.74,0 -7.321,3.75 -7.321,8.18908 0,4.441 2.581,8.191 7.321,8.191 3.3,0 5.849,-1.7711 6.269,-5.3109 h -1.889"
             style="fill:#231f20;fill-opacity:1;fill-rule:nonzero;stroke:none;stroke-width:0.1"
             id="path2830"
             inkscape:connector-curvature="0" />
          <path
             d="m 328.209,14.8801 h -0.06 c -0.24,-0.45 -1.08,-0.6012 -1.589,-0.6903 -3.21,-0.5707 -7.201,-0.5398 -7.201,-3.5699 0,-1.88982 1.681,-3.05974 3.451,-3.05974 2.879,0 5.429,1.82968 5.399,4.85974 z M 318.13,17.159 c 0.18,3.6301 2.729,5.191 6.269,5.191 2.73,0 5.701,-0.8398 5.701,-4.9809 V 9.15 c 0,-0.71992 0.359,-1.13984 1.109,-1.13984 0.21,0 0.45,0.05976 0.601,0.11992 V 6.53984 C 331.39,6.45 331.089,6.41992 330.579,6.41992 c -1.92,0 -2.22,1.08008 -2.22,2.7 h -0.06 c -1.32,-2.00976 -2.669,-3.15 -5.64,-3.15 -2.849,0 -5.189,1.41016 -5.189,4.53008 0,4.35 4.229,4.5 8.309,4.9801 1.56,0.1789 2.43,0.389 2.43,2.0988 0,2.55 -1.83,3.1813 -4.05,3.1813 -2.34,0 -4.079,-1.0801 -4.139,-3.6012 h -1.89"
             style="fill:#231f20;fill-opacity:1;fill-rule:nonzero;stroke:none;stroke-width:0.1"
             id="path2832"
             inkscape:connector-curvature="0" />
          <path
             d="m 333.775,27.8391 h 1.89 V 6.41992 h -1.89 V 27.8391"
             style="fill:#231f20;fill-opacity:1;fill-rule:nonzero;stroke:none;stroke-width:0.1"
             id="path2834"
             inkscape:connector-curvature="0" />
          <path
             d="m 363.654,21.359 c -0.719,3.3 -3.45,5.1898 -6.569,5.1898 -5.67,0 -8.07,-4.7386 -8.07,-9.4187 0,-4.6813 2.4,-9.41994 8.07,-9.41994 3.959,0 6.479,3.05974 6.869,6.86994 h 2.04 c -0.57,-5.25002 -3.899,-8.61018 -8.909,-8.61018 -6.75,0 -10.11,5.30898 -10.11,11.16018 0,5.85 3.36,11.159 10.11,11.159 4.05,0 8.069,-2.4301 8.609,-6.9301 h -2.04"
             style="fill:#231f20;fill-opacity:1;fill-rule:nonzero;stroke:none;stroke-width:0.1"
             id="path2836"
             inkscape:connector-curvature="0" />
          <path
             d="m 378.285,14.8801 h -0.059 c -0.241,-0.45 -1.081,-0.6012 -1.59,-0.6903 -3.21,-0.5707 -7.2,-0.5398 -7.2,-3.5699 0,-1.88982 1.68,-3.05974 3.45,-3.05974 2.88,0 5.429,1.82968 5.399,4.85974 z m -10.079,2.2789 c 0.18,3.6301 2.73,5.191 6.27,5.191 2.729,0 5.7,-0.8398 5.7,-4.9809 V 9.15 c 0,-0.71992 0.359,-1.13984 1.109,-1.13984 0.21,0 0.45,0.05976 0.601,0.11992 V 6.53984 c -0.42,-0.08984 -0.721,-0.11992 -1.231,-0.11992 -1.92,0 -2.219,1.08008 -2.219,2.7 h -0.061 c -1.319,-2.00976 -2.669,-3.15 -5.64,-3.15 -2.849,0 -5.189,1.41016 -5.189,4.53008 0,4.35 4.229,4.5 8.309,4.9801 1.56,0.1789 2.43,0.389 2.43,2.0988 0,2.55 -1.83,3.1813 -4.05,3.1813 -2.34,0 -4.079,-1.0801 -4.139,-3.6012 h -1.89"
             style="fill:#231f20;fill-opacity:1;fill-rule:nonzero;stroke:none;stroke-width:0.1"
             id="path2838"
             inkscape:connector-curvature="0" />
          <path
             d="m 383.851,21.9 h 1.74 v -2.6109 h 0.09 c 0.99,1.8609 2.609,3.0609 5.069,3.0609 2.04,0 3.87,-0.991 4.44,-3.0309 0.93,2.0399 2.88,3.0309 4.92,3.0309 3.39,0 5.13,-1.7711 5.13,-5.4301 V 6.41992 h -1.89 V 16.8289 c 0,2.55 -0.96,3.9313 -3.66,3.9313 -3.27,0 -4.2,-2.7 -4.2,-5.5801 V 6.41992 h -1.889 V 16.9199 c 0.029,2.1 -0.84,3.8403 -3.241,3.8403 -3.269,0 -4.59,-2.4602 -4.62,-5.7 V 6.41992 h -1.889 V 21.9"
             style="fill:#231f20;fill-opacity:1;fill-rule:nonzero;stroke:none;stroke-width:0.1"
             id="path2840"
             inkscape:connector-curvature="0" />
          <path
             d="m 415.97,20.7602 c -4.17,0 -5.431,-3.0903 -5.431,-6.6012 0,-3.209 1.41,-6.59884 5.431,-6.59884 3.599,0 5.069,3.38984 5.069,6.59884 0,3.2101 -1.47,6.6012 -5.069,6.6012 z M 408.649,21.9 h 1.741 v -2.941 h 0.059 c 0.87,2.1012 3.03,3.391 5.521,3.391 4.709,0 6.959,-3.8109 6.959,-8.191 0,-4.38009 -2.25,-8.18908 -6.959,-8.18908 -2.311,0 -4.561,1.16992 -5.37,3.38906 h -0.061 V 0.691016 h -1.89 V 21.9"
             style="fill:#231f20;fill-opacity:1;fill-rule:nonzero;stroke:none;stroke-width:0.1"
             id="path2842"
             inkscape:connector-curvature="0" />
          <path
             d="m 438.157,6.41992 h -1.74 v 2.79024 h -0.061 c -0.989,-2.07032 -3.029,-3.24024 -5.339,-3.24024 -3.9,0 -5.43,2.28008 -5.43,5.88008 V 21.9 h 1.891 V 11.8191 c 0.089,-2.78902 1.139,-4.25894 4.139,-4.25894 3.239,0 4.65,3.05974 4.65,6.20974 V 21.9 h 1.89 V 6.41992"
             style="fill:#231f20;fill-opacity:1;fill-rule:nonzero;stroke:none;stroke-width:0.1"
             id="path2844"
             inkscape:connector-curvature="0" />
          <path
             d="m 450.801,17.3691 c -0.09,2.3399 -1.89,3.3911 -4.05,3.3911 -1.68,0 -3.66,-0.6602 -3.66,-2.6704 0,-1.6808 1.92,-2.2796 3.21,-2.6097 l 2.52,-0.5711 c 2.16,-0.3289 4.409,-1.5899 4.409,-4.2891 0,-3.35974 -3.329,-4.64998 -6.209,-4.64998 -3.6,0 -6.06,1.68008 -6.36,5.46018 h 1.891 c 0.149,-2.55002 2.039,-3.86994 4.559,-3.86994 1.77,0 4.23,0.77968 4.23,2.93984 0,1.8 -1.68,2.4 -3.39,2.8191 l -2.43,0.5399 c -2.46,0.6609 -4.32,1.5 -4.32,4.1398 0,3.1512 3.09,4.3512 5.82,4.3512 3.09,0 5.55,-1.6199 5.669,-4.9809 h -1.889"
             style="fill:#231f20;fill-opacity:1;fill-rule:nonzero;stroke:none;stroke-width:0.1"
             id="path2846"
             inkscape:connector-curvature="0" />
        </g>
      </g>
    </g>
  </g>
</svg>
