<?xml version="1.0" encoding="UTF-8" standalone="no"?>
<!-- Created with Inkscape (http://www.inkscape.org/) -->

<svg
   xmlns:dc="http://purl.org/dc/elements/1.1/"
   xmlns:cc="http://creativecommons.org/ns#"
   xmlns:rdf="http://www.w3.org/1999/02/22-rdf-syntax-ns#"
   xmlns:svg="http://www.w3.org/2000/svg"
   xmlns="http://www.w3.org/2000/svg"
   xmlns:sodipodi="http://sodipodi.sourceforge.net/DTD/sodipodi-0.dtd"
   xmlns:inkscape="http://www.inkscape.org/namespaces/inkscape"
   version="1.1"
   id="svg2"
   xml:space="preserve"
   width="384.22678"
   height="150.33321"
   viewBox="0 0 384.22678 150.33321"
   sodipodi:docname="signature_block.svg"
   inkscape:version="0.92.3 (2405546, 2018-03-11)"><metadata
     id="metadata8"><rdf:RDF><cc:Work
         rdf:about=""><dc:format>image/svg+xml</dc:format><dc:type
           rdf:resource="http://purl.org/dc/dcmitype/StillImage" /></cc:Work></rdf:RDF></metadata><defs
     id="defs6" /><sodipodi:namedview
     pagecolor="#ffffff"
     bordercolor="#666666"
     borderopacity="1"
     objecttolerance="10"
     gridtolerance="10"
     guidetolerance="10"
     inkscape:pageopacity="0"
     inkscape:pageshadow="2"
     inkscape:window-width="3200"
     inkscape:window-height="1691"
     id="namedview4"
     showgrid="false"
     inkscape:zoom="4.2106912"
     inkscape:cx="137.55274"
     inkscape:cy="43.692112"
     inkscape:window-x="0"
     inkscape:window-y="0"
     inkscape:window-maximized="1"
     inkscape:current-layer="g12" /><g
     id="g10"
     inkscape:groupmode="layer"
     inkscape:label="signature_block"
     transform="matrix(1.3333333,0,0,1.3333333,0,3.0916636e-6)"><g
       id="g12"><path
         d="m 68.164,31.238 c 2.543,0.621 5.231,0.574 7.816,0.278 0.926,-0.106 1.84,-0.278 2.758,-0.418 2.649,-0.66 3.496,-0.778 6.067,-1.821 1.027,-0.414 2.027,-0.898 3.015,-1.394 0.332,-0.164 0.637,-0.375 0.938,-0.586 2.887,-2.043 2.129,-1.488 4.586,-3.817 0.832,-1.191 2.269,-2.668 1.949,-4.375 -0.43,-2.293 -3.031,-4.089 -4.824,-4.972 -4.434,-2.18 -7.43,-2.219 -12.344,-2.985 -2.594,-0.027 -5.187,-0.21 -7.773,-0.074 -7.602,0.395 -15.168,2.059 -22.219,4.926 -5.324,2.16 -4.313,1.559 -7.246,4.34 -0.246,0.957 -0.981,1.906 -0.742,2.863 0.683,2.746 5.351,4.668 7.144,5.43 2.383,1.015 4.859,1.793 7.328,2.586 1.242,0.402 17.324,5.09 18.313,5.379 5.32,1.746 11.695,3.609 16.773,6.129 2.141,1.062 4.289,2.199 6.129,3.73 2.953,2.457 5.18,5.481 4.262,9.59 -0.453,2.023 -1.942,3.664 -2.914,5.496 -2.063,1.832 -3.938,3.902 -6.188,5.496 -5.824,4.137 -15.117,8.391 -21.472,10.879 -7.485,2.926 -17.704,5.805 -25.512,7.613 -4.09,0.946 -8.235,1.629 -12.352,2.442 -5.972,0.816 -13.949,2.215 -20.144,1.976 C 9.121,89.855 6.656,89.691 4.422,88.836 0.824,87.457 -1.176,84.73 0.742,80.855 1.945,78.422 4.23,76.699 5.977,74.621 9.414,72.27 12.668,69.633 16.285,67.574 27.191,61.359 38.488,56.816 50.418,52.941 65.059,48.188 79.93,44.68 95.066,41.918 c 8.071,-1.473 16.223,-2.488 24.336,-3.73 31.739,-3.313 16.317,-1.907 46.258,-4.297 0,0 -0.387,0.285 -0.387,0.285 -29.718,2.168 -14.371,0.824 -46.031,4.129 -8.133,1.261 -16.301,2.285 -24.394,3.777 -15.258,2.82 -30.211,6.402 -44.95,11.27 -9.746,3.214 -23.089,8.429 -32.328,13.714 -3.492,2 -6.629,4.571 -9.945,6.852 -1.668,2 -3.836,3.672 -5.008,6 -1.847,3.676 -0.176,6.406 3.34,7.84 2.168,0.883 4.578,1.074 6.914,1.195 6.156,0.313 13.914,-1.019 19.863,-1.797 4.094,-0.801 8.219,-1.465 12.286,-2.402 9.066,-2.09 16.878,-4.442 25.589,-7.699 6.743,-2.524 12.844,-5.164 18.743,-9.348 2.195,-1.555 4.023,-3.57 6.035,-5.359 0.957,-1.782 2.41,-3.375 2.875,-5.348 0.953,-4.035 -1.106,-7.035 -4.004,-9.527 -1.793,-1.543 -3.903,-2.703 -6.012,-3.778 -5.141,-2.617 -11.23,-4.386 -16.652,-6.187 -3.149,-0.906 -6.293,-1.82 -9.442,-2.719 -3.007,-0.859 -6.039,-1.644 -9.031,-2.559 -2.523,-0.769 -5.062,-1.511 -7.508,-2.496 -1.972,-0.796 -6.789,-2.617 -7.511,-5.558 -0.25,-1.02 0.543,-2.031 0.816,-3.047 1.789,-1.258 3.48,-2.664 5.363,-3.77 3.231,-1.898 8.473,-3.797 11.961,-4.769 5.113,-1.418 10.27,-2.297 15.57,-2.578 2.614,-0.137 5.235,0.035 7.852,0.05 4.961,0.735 8.102,0.782 12.613,2.918 1.926,0.915 4.606,2.708 5.11,5.114 0.371,1.765 -1.082,3.277 -1.934,4.515 -0.691,0.664 -1.34,1.375 -2.074,1.993 -2.242,1.886 -4.715,3.293 -7.309,4.675 -1.851,0.985 -4.125,1.848 -6.136,2.446 -0.996,0.293 -2.016,0.5 -3.024,0.75 -0.93,0.136 -1.859,0.312 -2.793,0.418 -2.664,0.308 -5.41,0.355 -8.039,-0.227 0,0 2.086,-1.426 2.086,-1.426 z"
         style="fill:#000000;fill-opacity:1;fill-rule:nonzero;stroke:none"
         id="path14"
         inkscape:connector-curvature="0" /><path
         d="m 163.91,14.27 c 0.465,2.367 0.629,4.769 0.742,7.175 0.149,3.645 0.321,7.289 0.321,10.938 0,0.91 -0.024,1.82 -0.032,2.73 -0.187,4.766 -0.519,9.535 -1.226,14.258 -0.137,0.934 -0.309,1.863 -0.465,2.797 -0.68,3.605 -1.684,7.16 -3.172,10.523 -0.918,2.071 -1.367,2.754 -2.473,4.707 -1.285,2 -2.636,4.016 -4.468,5.567 -1.649,1.394 -4.106,2.605 -5.977,3.305 -0.785,0.292 -1.648,0.308 -2.476,0.464 -2.598,0.266 -5.223,0.184 -7.813,-0.148 -1.297,-0.168 -2.945,-0.457 -4.199,-0.898 -0.551,-0.196 -1.067,-0.485 -1.602,-0.727 -1.043,-0.871 -1.558,-1.074 -2.074,-2.395 -0.684,-1.75 -0.301,-3.777 0.52,-5.402 0.339,-0.672 0.824,-1.266 1.238,-1.894 0.594,-0.59 1.129,-1.25 1.789,-1.766 0.73,-0.574 1.527,-1.07 2.359,-1.488 3.446,-1.735 4.688,-2.473 8.254,-2.575 3.352,-0.089 4.989,0.438 8.309,1.09 4.969,1.223 9.726,3.129 14.574,4.731 3.328,1.097 6.57,2.156 10.051,2.687 1.715,0.258 3.461,0.285 5.187,0.426 1.75,-0.16 3.528,-0.145 5.254,-0.48 3.649,-0.715 7.426,-2.266 10.547,-4.278 1.27,-0.82 2.363,-1.894 3.469,-2.929 5.277,-4.93 4.746,-4.711 9.262,-10.454 1.253,-2.023 2.617,-3.984 3.757,-6.074 2.028,-3.699 3.844,-7.879 4.809,-12.015 0.785,-3.368 1.262,-6.985 -0.164,-10.313 -0.645,-1.508 -1.922,-2.66 -2.883,-3.988 -1.676,-0.934 -3.215,-2.164 -5.023,-2.805 -5.071,-1.793 -10.875,-1.801 -16.117,-1.375 -7.586,0.613 -15.645,2.422 -22.942,4.426 -4.066,1.117 -8.055,2.504 -12.078,3.758 -9.367,3.558 -12.09,4.371 -20.875,8.511 -2.578,1.211 -5.168,2.418 -7.613,3.883 -0.442,0.262 -5.125,3.196 -3.821,5.219 0.692,1.066 2.301,1.082 3.453,1.621 2.668,0.238 5.329,0.656 8.008,0.715 8.121,0.176 20.496,-0.719 28.2,-1.363 12.332,-1.039 25.832,-2.571 38.089,-4.051 6.012,-0.727 12.016,-1.531 18.024,-2.293 0,0 -0.66,0.492 -0.66,0.492 -18.739,2.297 -37.473,4.715 -56.274,6.457 -7.523,0.695 -20.804,1.805 -28.82,1.785 -2.801,-0.004 -5.586,-0.363 -8.383,-0.543 -1.23,-0.617 -2.992,-0.66 -3.691,-1.843 -0.516,-0.876 0.172,-2.192 0.886,-2.911 1.813,-1.828 4.137,-3.074 6.352,-4.379 2.402,-1.414 4.941,-2.582 7.469,-3.757 8.676,-4.032 11.468,-4.875 20.718,-8.364 4.032,-1.257 8.028,-2.64 12.102,-3.765 7.395,-2.043 15.52,-3.907 23.207,-4.582 5.359,-0.473 11.242,-0.535 16.441,1.269 1.848,0.641 3.426,1.891 5.141,2.836 0.973,1.36 2.27,2.535 2.922,4.07 1.434,3.383 0.922,7.043 0.105,10.457 -0.992,4.161 -2.832,8.36 -4.871,12.094 -1.14,2.094 -2.5,4.059 -3.746,6.09 -3.168,4.063 -5.211,7.149 -9.183,10.477 -3.379,2.828 -7.887,5.882 -12.098,7.566 -1.73,0.691 -3.535,1.223 -5.367,1.574 -1.735,0.332 -3.52,0.305 -5.278,0.457 -1.734,-0.148 -3.484,-0.183 -5.207,-0.449 -3.539,-0.551 -6.668,-1.598 -10.054,-2.711 -4.86,-1.598 -9.629,-3.496 -14.625,-4.66 -3.375,-0.621 -4.949,-1.125 -8.344,-0.973 -1.145,0.051 -2.262,0.383 -3.402,0.493 -0.313,0.027 -0.645,-0.2 -0.934,-0.082 -1.949,0.804 -2.687,1.75 -4.144,3.14 -0.411,0.613 -0.895,1.184 -1.239,1.84 -0.808,1.543 -1.226,3.504 -0.578,5.191 0.481,1.254 0.988,1.457 1.984,2.282 0.52,0.234 1.02,0.515 1.559,0.707 1.238,0.437 2.852,0.726 4.137,0.894 2.578,0.332 5.187,0.399 7.773,0.094 0.821,-0.168 1.625,-0.434 2.461,-0.508 0.106,-0.008 0.063,0.328 0.16,0.281 0.66,-0.324 1.254,-0.781 1.825,-1.25 1.855,-1.523 3.226,-3.531 4.523,-5.519 1.117,-1.949 1.57,-2.621 2.496,-4.688 1.496,-3.343 2.512,-6.886 3.203,-10.48 0.156,-0.934 0.332,-1.86 0.473,-2.793 0.711,-4.711 1.047,-9.473 1.223,-14.227 0.007,-0.906 0.027,-1.812 0.023,-2.722 -0.012,-3.629 -0.227,-7.258 -0.398,-10.883 -0.133,-2.375 -0.286,-4.762 -0.829,-7.086 0,0 2.219,-1.191 2.219,-1.191 z"
         style="fill:#000000;fill-opacity:1;fill-rule:nonzero;stroke:none"
         id="path16"
         inkscape:connector-curvature="0" /><path
         d="m 100.559,75.652 c 1.339,-3.281 2.597,-6.593 3.816,-9.922 1.793,-5.066 3.074,-10.289 4.25,-15.527 0.117,-0.547 0.238,-1.098 0.352,-1.644 0.085,-0.403 0.164,-0.805 0.253,-1.207 0.215,-0.985 0.379,-2.094 2.461,-1.016 0.438,0.226 -0.062,0.988 -0.125,1.48 -0.089,0.731 -0.218,1.454 -0.328,2.18 -1.14,5.848 -2.902,11.582 -5.14,17.106 -0.469,1.168 -0.993,2.316 -1.489,3.472 -1.183,2.621 -2.371,5.242 -3.648,7.821 -0.258,0.523 -0.512,1.05 -0.801,1.558 -0.168,0.305 -0.277,0.684 -0.566,0.883 -0.742,0.504 -1.625,0.769 -2.438,1.152 0.043,-0.429 0.028,-0.871 0.125,-1.293 0.239,-1.05 1.422,-4.285 1.696,-5.027 0.976,-2.641 1.777,-4.629 2.781,-7.277 0.476,-1.262 0.945,-2.528 1.414,-3.789 1.199,-3.215 2.32,-6.454 3.371,-9.715 0.543,-1.68 1.047,-3.367 1.629,-5.032 0.457,-0.691 0.926,-1.511 2.39,-0.417 0.465,0.347 -0.164,1.152 -0.269,1.722 -0.555,2.992 -1.305,5.945 -2.027,8.899 -1.258,5.199 -2.7,10.347 -3.985,15.535 -0.183,0.847 -0.312,2.379 -2.25,1.394 -0.472,-0.238 0.422,-0.972 0.617,-1.465 0.329,-0.824 0.637,-1.652 0.946,-2.484 0.84,-2.25 1.758,-4.836 2.566,-7.082 1.285,-3.578 2.563,-7.16 3.871,-10.734 0.719,-1.961 1.438,-3.922 2.242,-5.852 0.481,-0.797 0.957,-1.832 2.547,-0.992 0.473,0.25 -0.195,1.051 -0.332,1.566 -0.871,3.309 -2.129,6.512 -3.289,9.719 -2.445,6.609 -5.074,13.156 -7.351,19.828 -0.309,0.906 -0.598,1.82 -0.899,2.731 -0.219,0.718 -0.445,1.437 -0.66,2.164 -0.289,0.976 -0.516,1.824 -0.766,2.797 -0.058,0.222 0.024,0.539 -0.168,0.66 -2.773,1.789 -2.328,1.293 -1.964,-0.258 1.125,-4.777 2.226,-9.563 3.507,-14.297 0.278,-1.023 0.571,-2.039 0.856,-3.055 0.266,-0.882 0.519,-1.769 0.789,-2.652 0.516,-1.695 1.102,-3.371 1.598,-5.074 0.148,-0.504 0.187,-0.906 0.129,-0.414 0.601,-0.207 1.203,-0.836 1.804,-0.625 0.375,0.133 -0.355,0.711 -0.515,1.074 -0.2,0.437 -0.379,0.883 -0.559,1.328 -0.488,1.219 -0.91,2.461 -1.328,3.707 -0.305,0.836 -0.578,2.059 -2.301,1.262 -0.457,-0.207 0.473,-0.887 0.707,-1.332 0.383,-0.742 0.762,-1.488 1.141,-2.231 5.242,-10.257 -2.559,4.989 3.148,-6.164 1.449,-2.816 2.848,-5.66 4.258,-8.496 0.391,-0.785 1.082,-2.246 1.605,-3.066 0.11,-0.176 0.266,-0.317 0.395,-0.477 0.797,-0.25 1.57,-0.914 2.383,-0.742 0.398,0.082 -0.11,0.801 -0.203,1.195 -0.184,0.782 -1.02,3.477 -1.207,4.082 -0.266,0.86 -0.536,1.715 -0.801,2.571 -0.281,0.91 -0.559,1.82 -0.84,2.734 -0.754,2.484 -1.492,4.969 -2.195,7.469 -0.391,1.402 -0.746,2.808 -1.157,4.203 -0.523,1.199 -0.332,1.019 -2.562,1.852 -0.145,0.054 -0.191,-0.247 -0.25,-0.387 -0.227,-0.578 -0.125,-1.25 -0.066,-1.84 0.128,-0.813 0.382,-1.59 0.984,-2.18 0.316,-0.312 0.684,-0.539 1.047,-0.793 1.156,-0.746 0.574,-0.371 1.742,-1.121 0,0 2.285,-0.89 2.285,-0.89 -1.156,0.742 -0.586,0.371 -1.711,1.105 -1.265,0.836 -1.808,1.191 -2.117,2.77 -0.062,0.527 -0.113,0.714 -0.066,1.238 0.015,0.148 0.047,0.293 0.086,0.437 0.011,0.039 0.105,0.082 0.07,0.106 -0.625,0.445 -1.242,0.914 -1.938,1.226 -0.168,0.075 0.18,-0.316 0.27,-0.476 0.476,-1.403 0.859,-2.828 1.277,-4.25 0.731,-2.5 1.489,-4.996 2.239,-7.496 0.757,-2.508 1.55,-5.008 2.25,-7.532 0.164,-0.582 0.324,-1.167 0.46,-1.757 0.083,-0.344 -0.039,-0.786 0.204,-1.043 0.582,-0.625 1.414,-0.961 2.117,-1.442 -0.16,0.153 -0.352,0.278 -0.485,0.453 -0.55,0.754 -1.363,2.395 -1.726,3.106 -1.457,2.836 -2.879,5.695 -4.336,8.535 -1.547,3.063 -1.598,3.141 -3.047,6.113 -0.355,0.731 -0.707,1.461 -1.055,2.192 -0.207,0.433 -0.25,0.984 -0.613,1.3 -0.707,0.618 -1.578,1.059 -2.465,1.383 -0.199,0.075 0.172,-0.386 0.258,-0.578 0.434,-1.25 0.867,-2.5 1.348,-3.73 0.172,-0.446 0.347,-0.891 0.531,-1.332 0.148,-0.36 0.191,-0.797 0.469,-1.075 0.746,-0.738 1.679,-1.253 2.523,-1.882 0.07,0.07 0.215,0.109 0.215,0.211 0.004,0.234 -0.129,0.445 -0.199,0.668 -0.137,0.41 -0.289,0.816 -0.43,1.226 -0.746,2.176 -1.473,4.359 -2.125,6.567 -0.293,1.019 -0.598,2.035 -0.879,3.058 -1.285,4.684 -2.359,9.43 -3.316,14.192 -0.297,1.636 -0.012,1.648 -2.485,2.394 -0.226,0.066 0.141,-0.453 0.211,-0.68 0.504,-1.687 0.989,-3.382 1.567,-5.043 2.617,-7.601 5.59,-15.07 8.355,-22.613 0.817,-2.324 1.715,-4.793 2.43,-7.164 0.242,-0.801 0.457,-1.605 0.652,-2.418 0.114,-0.484 -0.047,-1.086 0.27,-1.473 0.582,-0.711 1.465,-1.113 2.246,-1.597 0.164,-0.102 -0.246,0.293 -0.371,0.437 -0.199,0.438 -0.414,0.871 -0.602,1.313 -0.429,1.015 -1.484,3.738 -1.816,4.609 -1.356,3.567 -2.649,7.156 -3.926,10.754 -3.117,8.941 0.344,-0.996 -2.441,7.027 -0.282,0.817 -0.567,1.629 -0.852,2.446 -0.168,0.48 -0.144,1.086 -0.508,1.437 -0.676,0.649 -1.539,1.121 -2.433,1.399 -0.239,0.07 0.144,-0.477 0.214,-0.715 1.434,-5.192 2.899,-10.375 4.153,-15.61 0.578,-2.441 0.953,-3.918 1.441,-6.339 0.164,-0.821 0.317,-1.641 0.449,-2.465 0.086,-0.551 -0.121,-1.207 0.204,-1.66 1.046,-1.454 3.351,-2.153 2.043,-1.739 -0.141,0.344 -0.293,0.68 -0.422,1.028 -0.266,0.722 -1.2,3.558 -1.375,4.074 -1.102,3.273 -2.246,6.531 -3.457,9.766 -0.473,1.261 -0.946,2.527 -1.414,3.789 -0.477,1.25 -0.957,2.5 -1.426,3.753 -0.774,2.075 -1.574,4.235 -2.242,6.352 -0.266,0.836 -0.579,2.039 -0.829,2.965 -0.628,0.422 -1.16,1.043 -1.882,1.269 -0.348,0.106 0.449,-0.574 0.636,-0.882 0.313,-0.512 0.582,-1.047 0.856,-1.579 1.34,-2.582 2.562,-5.226 3.777,-7.867 0.504,-1.156 1.031,-2.3 1.508,-3.468 2.234,-5.473 3.965,-11.172 5.008,-16.989 0.09,-0.711 0.203,-1.418 0.273,-2.133 0.047,-0.468 -0.183,-1.023 0.082,-1.414 0.535,-0.781 1.344,-1.363 2.149,-1.859 0.203,-0.125 -0.153,0.441 -0.215,0.668 -0.067,0.258 -0.676,2.887 -0.676,2.891 -1.246,5.238 -2.531,10.476 -4.285,15.574 -1.176,3.289 -2.391,6.562 -3.621,9.828 0,0 -2.281,1.066 -2.281,1.066 z"
         style="fill:#000000;fill-opacity:1;fill-rule:nonzero;stroke:none"
         id="path18"
         inkscape:connector-curvature="0" /><path
         d="m 221.5,30.223 c 0.242,-0.137 0.984,-0.512 0.727,-0.411 -0.383,0.149 -1.196,0.95 -1.09,0.555 0.125,-0.476 0.797,-0.578 1.175,-0.89 0.43,-0.356 0.852,-0.719 1.254,-1.102 1.133,-1.074 1.454,-1.512 2.469,-2.699 1.547,-1.899 2.793,-4.004 3.977,-6.141 0.761,-0.312 1.465,-0.832 2.281,-0.933 0.23,-0.028 -0.109,0.453 -0.168,0.675 -0.098,0.36 -0.203,0.719 -0.301,1.078 -0.437,1.598 -0.836,3.204 -1.219,4.813 -0.308,1.508 -0.644,3.012 -0.832,4.539 -0.035,0.266 -0.214,1.313 0.071,1.66 0.101,0.121 0.308,0.078 0.461,0.121 0.269,-0.097 0.906,-0.558 0.812,-0.289 -0.109,0.313 -1.109,0.703 -0.875,0.469 0.442,-0.445 1.028,-0.719 1.516,-1.113 1.832,-1.477 3.465,-3.176 5.097,-4.871 1.891,-2.067 3.676,-4.243 5.161,-6.625 0.675,-0.145 1.375,-0.668 2.027,-0.434 0.344,0.125 -0.293,0.672 -0.434,1.012 -0.175,0.433 -0.355,0.871 -0.515,1.316 -0.36,1.004 -0.664,2.016 -0.895,3.063 -0.109,0.48 -0.179,0.972 -0.269,1.461 -0.114,1.199 -0.473,3.074 0.836,3.835 0.668,0.387 1.187,0.223 1.918,0.172 0.73,-0.254 2.015,-0.609 2.562,-1.203 0.152,-0.168 -0.785,0.293 -0.684,0.086 0.286,-0.57 0.907,-0.898 1.329,-1.379 1.078,-1.222 1.371,-1.726 2.285,-3.054 1.558,-2.434 2.75,-5.067 4.051,-7.637 0.793,-1.609 1.769,-3.117 2.671,-4.664 0.524,-0.973 0.379,-1.141 2.418,-1.207 0.223,-0.008 -0.152,0.422 -0.218,0.64 -0.258,0.86 -0.348,1.301 -0.567,2.215 -0.824,3.844 -1.109,7.774 -1.355,11.684 -0.082,1.566 -0.16,3.133 -0.106,4.699 0.008,0.266 0.039,1.293 0.192,1.625 0.05,0.106 0.179,0.152 0.269,0.227 0.149,-0.09 0.602,-0.325 0.442,-0.262 -0.481,0.187 -0.985,0.93 -1.414,0.641 -0.368,-0.25 0.609,-0.649 0.882,-1 1.211,-1.571 2.024,-3.235 2.899,-5 1.726,-3.739 2.816,-7.723 3.805,-11.711 0.296,-1.25 0.585,-2.5 0.867,-3.754 0.054,-0.242 0.109,-0.485 0.164,-0.727 0.031,-0.133 -0.035,-0.348 0.09,-0.394 0.714,-0.278 1.496,-0.34 2.246,-0.508 -0.344,4.152 -0.926,8.285 -1.41,12.422 -0.211,1.992 -0.434,3.98 -0.536,5.98 -0.031,0.621 -0.082,1.676 0.012,2.332 0.035,0.238 0.133,0.465 0.195,0.695 0.137,0.114 0.235,0.29 0.403,0.344 0.687,0.215 2.336,-0.64 2.75,-1.043 0.176,-0.172 -0.856,0.434 -0.707,0.239 0.379,-0.497 0.961,-0.797 1.441,-1.196 2.235,-1.933 4.25,-4.105 6.524,-5.992 1.058,-0.687 1.644,-1.098 3.128,-1.644 0.149,-0.055 0.301,0.097 0.434,0.179 0.5,0.328 0.738,0.895 0.981,1.41 0.191,0.594 0.511,1.27 0.394,1.914 -0.019,0.086 -0.023,0.2 -0.101,0.247 -0.782,0.472 -1.614,0.851 -2.422,1.273 -0.817,-0.434 -1.524,-1.047 -2.364,-1.441 -0.175,-0.086 -0.363,-0.145 -0.546,-0.219 -0.45,-0.09 -0.661,-0.18 -1.126,-0.055 -0.234,0.063 -0.882,0.41 -0.675,0.285 0.422,-0.25 0.859,-0.847 1.316,-0.668 0.383,0.157 -0.633,0.535 -0.93,0.821 -0.332,0.324 -0.64,0.675 -0.961,1.011 -0.902,1.032 -1.718,2.129 -2.453,3.282 -0.171,0.265 -0.75,1.175 -0.843,1.566 -0.028,0.133 0.039,0.266 0.058,0.402 0.141,0.035 0.278,0.106 0.426,0.106 1.02,0.027 2.191,-0.426 3.09,-0.852 0.426,-0.199 0.863,-0.398 1.25,-0.672 0.25,-0.175 -0.559,0.258 -0.84,0.383 1.496,-1.148 3.027,-2.5 3.961,-4.172 0.098,-0.176 0.168,-0.367 0.254,-0.55 0.023,-0.126 0.152,-0.465 0.004,-0.614 -0.106,-0.101 -0.559,0.16 -0.43,0.09 2.07,-1.156 2.309,-1.457 1.469,-0.637 -0.102,0.18 -0.227,0.344 -0.305,0.535 -0.422,1.04 -0.328,2.262 0.008,3.305 0.098,0.309 0.242,0.598 0.363,0.899 0.192,0.277 0.324,0.609 0.571,0.836 0.886,0.808 2.011,1.07 3.152,1.316 1.707,0.371 3.391,0.5 5.125,0.68 0,0 -1.883,1.336 -1.883,1.336 -1.586,-0.172 -3.625,-0.352 -5.184,-0.688 -1.257,-0.269 -2.363,-0.519 -3.324,-1.402 -0.265,-0.239 -0.402,-0.586 -0.601,-0.879 -0.129,-0.309 -0.282,-0.61 -0.387,-0.926 -0.363,-1.094 -0.473,-2.336 -0.113,-3.449 0.066,-0.207 0.179,-0.395 0.269,-0.59 0.887,-1.113 0.438,-0.656 2.86,-1.855 0.355,-0.176 0.714,0.238 0.738,0.546 0.008,0.153 -0.043,0.305 -0.067,0.457 -0.085,0.2 -0.152,0.403 -0.253,0.594 -0.27,0.504 -0.719,1.11 -1.075,1.535 -0.855,1.032 -1.828,1.957 -2.906,2.754 -1.828,1.117 -3.723,2.5 -5.824,3.153 -0.496,0.152 -1.442,0.378 -2.008,0.254 -0.207,-0.043 -0.371,-0.211 -0.555,-0.321 -0.031,-0.179 -0.129,-0.359 -0.097,-0.539 0.066,-0.39 0.703,-1.371 0.867,-1.625 0.742,-1.16 1.559,-2.273 2.449,-3.324 0.305,-0.332 1.41,-1.578 1.832,-1.867 0.942,-0.641 1.934,-1.215 2.934,-1.762 0.621,-0.336 1.277,-0.289 1.922,-0.086 0.601,0.262 0.539,0.211 1.113,0.551 0.484,0.285 0.941,0.656 1.453,0.898 0.094,0.043 0.203,0.063 0.301,0.098 -0.645,0.414 -1.281,0.836 -1.934,1.238 -0.058,0.039 0.133,-0.07 0.16,-0.137 0.047,-0.093 0.047,-0.203 0.051,-0.304 0,-0.52 -0.18,-1.024 -0.355,-1.5 -0.176,-0.371 -0.274,-0.653 -0.555,-0.961 -0.098,-0.106 -0.207,-0.203 -0.336,-0.266 -0.105,-0.051 -0.441,0.004 -0.352,-0.074 0.504,-0.437 2.739,-1.691 1.165,-0.797 -2.34,1.852 -4.372,4.059 -6.614,6.028 -2.258,1.917 -1.289,1.207 -4.824,3.367 -0.754,0.465 -2.023,1.304 -2.988,0.828 -0.196,-0.094 -0.305,-0.313 -0.457,-0.469 -0.067,-0.25 -0.164,-0.496 -0.199,-0.75 -0.086,-0.68 -0.012,-1.75 0.031,-2.391 0.136,-2.011 0.379,-4.015 0.597,-6.023 0.485,-4.098 1.063,-8.191 1.262,-12.316 0.75,-0.571 1.445,-1.219 2.25,-1.711 0.121,-0.075 -0.086,0.269 -0.121,0.406 -0.406,1.5 -0.723,3.023 -1.121,4.523 -1.012,4 -2.109,8 -3.813,11.774 -0.308,0.64 -0.597,1.289 -0.925,1.918 -0.532,1.023 -1.2,2.16 -1.879,3.101 -0.258,0.36 -0.481,0.762 -0.828,1.032 -0.891,0.683 -1.864,1.273 -2.856,1.804 -0.18,0.098 -0.402,0.031 -0.605,0.047 -0.106,-0.121 -0.258,-0.219 -0.321,-0.367 -0.148,-0.356 -0.156,-1.399 -0.164,-1.691 -0.019,-1.582 0.075,-3.165 0.168,-4.747 0.258,-3.91 0.52,-7.835 1.274,-11.687 0.199,-0.938 0.269,-1.324 0.504,-2.207 0.054,-0.215 0.007,-0.508 0.183,-0.645 0.739,-0.578 1.598,-0.98 2.43,-1.414 0.184,-0.093 -0.668,0.934 -0.277,0.551 -0.922,1.551 -1.93,3.051 -2.735,4.672 -1.328,2.582 -2.531,5.234 -4.094,7.691 -0.925,1.36 -1.195,1.828 -2.273,3.09 -0.418,0.485 -0.805,1.008 -1.305,1.403 -0.429,0.339 -3.472,2.511 -4.757,3.058 -0.422,0.18 -0.875,0.266 -1.309,0.395 -0.848,0.011 -1.32,0.156 -2.055,-0.332 -1.34,-0.883 -1.039,-2.739 -0.894,-4.067 0.09,-0.492 0.164,-0.992 0.269,-1.48 0.223,-1.024 0.531,-2.086 0.871,-3.078 0.149,-0.442 0.317,-0.875 0.485,-1.309 0.125,-0.336 0.121,-0.762 0.39,-0.996 0.746,-0.668 1.692,-1.078 2.539,-1.617 -0.269,0.383 -0.519,0.777 -0.785,1.16 -1.375,1.961 -2.922,3.805 -4.531,5.578 -1.465,1.535 -1.84,1.969 -3.391,3.418 -0.73,0.684 -2.207,2.027 -3.109,2.594 -1.086,0.683 -2.188,1.34 -3.344,1.898 -0.285,0.141 -0.621,0.117 -0.933,0.176 -0.188,-0.109 -0.442,-0.148 -0.567,-0.328 -0.297,-0.422 -0.113,-1.395 -0.062,-1.774 0.211,-1.535 0.554,-3.05 0.863,-4.57 0.371,-1.601 0.758,-3.195 1.156,-4.793 0.086,-0.351 0.176,-0.703 0.266,-1.055 0.051,-0.203 -0.012,-0.476 0.152,-0.601 0.692,-0.52 1.524,-0.824 2.285,-1.238 -0.468,0.691 -0.859,1.433 -1.293,2.144 -0.855,1.414 -1.765,2.797 -2.8,4.086 -0.985,1.176 -1.344,1.656 -2.438,2.723 -1.828,1.789 -3.973,3.156 -6.25,4.316 0,0 1.965,-1.562 1.965,-1.562 z"
         style="fill:#000000;fill-opacity:1;fill-rule:nonzero;stroke:none"
         id="path20"
         inkscape:connector-curvature="0" /><path
         d="m 260.398,17.867 c -1.882,0.215 -3.785,0.395 -5.683,0.274 -0.414,-0.028 -0.828,-0.086 -1.238,-0.125 -1.59,-0.278 -2.938,-0.891 -4.004,-2.129 -0.727,-0.844 -0.801,-1.164 -1.293,-2.168 -0.129,-0.422 -0.297,-0.832 -0.395,-1.262 -0.293,-1.332 -0.25,-2.75 0.403,-3.98 0.628,-1.176 1.05,-1.329 2.085,-2.141 1.207,-0.617 2.36,-1.352 3.622,-1.848 1.011,-0.398 2.953,-0.363 3.964,-0.293 2.637,0.188 5.235,0.836 7.813,1.383 2.695,0.574 5.398,1.141 8.144,1.43 1.372,0.144 2.883,0.238 4.266,0.137 0.547,-0.04 1.086,-0.153 1.629,-0.227 3.152,-1.352 0.062,0.25 -0.02,0.25 -0.238,0.008 0.332,-0.406 0.305,-0.641 -0.035,-0.308 -0.238,-0.597 -0.473,-0.797 -1.222,-1.042 -2.828,-1.371 -4.296,-1.871 -5.461,-1.304 -11.059,-1.937 -16.625,-2.605 0,0 1.769,-1.254 1.769,-1.254 5.598,0.719 11.223,1.359 16.738,2.582 1.192,0.387 4.797,1.102 5.137,2.902 0.051,0.274 -0.043,0.621 -0.262,0.793 -1.984,1.555 -2.363,1.551 -4.199,2.075 -0.539,0.062 -1.074,0.156 -1.613,0.183 -1.391,0.07 -2.867,-0.039 -4.242,-0.195 -2.739,-0.317 -5.438,-0.891 -8.133,-1.461 -2.582,-0.531 -5.195,-1.164 -7.84,-1.301 -0.703,-0.035 -1.41,-0.043 -2.105,0.024 -0.622,0.062 -1.215,0.441 -1.836,0.371 -0.239,-0.032 0.328,-0.352 0.492,-0.528 -1.028,0.746 -1.473,0.899 -2.121,2.008 -0.68,1.172 -0.746,2.539 -0.469,3.836 0.09,0.418 0.25,0.816 0.375,1.227 0.48,0.972 0.551,1.277 1.262,2.089 1.023,1.165 2.394,1.766 3.906,1.997 0.406,0.039 0.816,0.089 1.227,0.113 1.91,0.105 3.832,-0.082 5.726,-0.356 0,0 -2.016,1.508 -2.016,1.508 z"
         style="fill:#000000;fill-opacity:1;fill-rule:nonzero;stroke:none"
         id="path22"
         inkscape:connector-curvature="0" /><path
         d="m 22.60684,110.76391 c 7.59202,-1.65312 15.229206,-3.09977 22.856068,-4.58257 24.812469,-4.85873 49.568155,-10.041382 74.581942,-13.812227 7.61783,-1.149837 15.26405,-2.117712 22.89607,-3.175924 26.84372,-3.292068 53.83327,-5.363323 80.85895,-6.402176 17.02815,-0.660737 38.56791,-0.881413 55.76385,-1.134351 0,0 -0.63107,0.46458 -0.63107,0.46458 -21.7772,0.175509 -33.43688,0.110981 -55.59737,1.007883 -27.16118,1.098215 -54.28623,3.261095 -81.25642,6.709316 -7.69138,1.104668 -15.39955,2.112549 -23.07674,3.316588 -25.362218,3.963129 -50.450852,9.406461 -75.580784,14.573631 -6.804813,1.39632 -13.619951,2.7578 -20.400245,4.28575 -1.583445,0.35747 -1.663456,0.38716 -2.990091,0.73559 0,0 2.57584,-1.98609 2.57584,-1.98609 z"
         style="fill:#000000;fill-opacity:1;fill-rule:nonzero;stroke:none;stroke-width:1.29050136"
         id="path24"
         inkscape:connector-curvature="0" /></g></g></svg>