<?xml version="1.0" encoding="UTF-8" standalone="no"?>
<!-- Created with Inkscape (http://www.inkscape.org/) -->

<svg
   xmlns:dc="http://purl.org/dc/elements/1.1/"
   xmlns:cc="http://creativecommons.org/ns#"
   xmlns:rdf="http://www.w3.org/1999/02/22-rdf-syntax-ns#"
   xmlns:svg="http://www.w3.org/2000/svg"
   xmlns="http://www.w3.org/2000/svg"
   xmlns:sodipodi="http://sodipodi.sourceforge.net/DTD/sodipodi-0.dtd"
   xmlns:inkscape="http://www.inkscape.org/namespaces/inkscape"
   width="64.772896mm"
   height="99.587578mm"
   viewBox="0 0 64.772896 99.587578"
   version="1.1"
   id="svg1170"
   inkscape:version="0.92.3 (2405546, 2018-03-11)"
   sodipodi:docname="owl.svg">
  <defs
     id="defs1164" />
  <sodipodi:namedview
     id="base"
     pagecolor="#ffffff"
     bordercolor="#666666"
     borderopacity="1.0"
     inkscape:pageopacity="0.0"
     inkscape:pageshadow="2"
     inkscape:zoom="0.35"
     inkscape:cx="-1547.5945"
     inkscape:cy="-106.08872"
     inkscape:document-units="mm"
     inkscape:current-layer="layer1"
     showgrid="false"
     fit-margin-top="0"
     fit-margin-left="0"
     fit-margin-right="0"
     fit-margin-bottom="0"
     inkscape:window-width="3200"
     inkscape:window-height="1691"
     inkscape:window-x="0"
     inkscape:window-y="0"
     inkscape:window-maximized="1" />
  <metadata
     id="metadata1167">
    <rdf:RDF>
      <cc:Work
         rdf:about="">
        <dc:format>image/svg+xml</dc:format>
        <dc:type
           rdf:resource="http://purl.org/dc/dcmitype/StillImage" />
        <dc:title></dc:title>
      </cc:Work>
    </rdf:RDF>
  </metadata>
  <g
     inkscape:label="Layer 1"
     inkscape:groupmode="layer"
     id="layer1"
     transform="translate(-314.5957,-21.17645)">
    <g
       transform="matrix(0.80171086,0,0,0.80171086,314.03524,20.775595)"
       id="surface8599"
       style="stroke-linecap:butt;stroke-linejoin:round;stroke-miterlimit:100000">
      <path
         inkscape:connector-curvature="0"
         style="fill:#0f3f75;fill-opacity:1;fill-rule:nonzero;stroke:none;stroke-linecap:butt;stroke-linejoin:round;stroke-miterlimit:100000"
         d="m 13.945313,65.328125 c -0.09375,1.152344 -0.117188,1.710938 -0.121094,3.175781 -0.01172,3.789063 0.53125,8.507813 3.046875,13.484375 2.523437,4.972657 7.027344,10.246094 15.066406,15.113282 0.402344,0.242187 0.570313,0.738281 0.402344,1.171875 -0.636719,1.640625 -1.148438,3.097652 -1.277344,4.183592 l -0.03906,0.5625 c -0.160157,1.4336 1.367187,6.17578 1.367187,6.17578 l 0.136719,0.55469 c 0.21875,1.18359 -3.261719,7.99609 -4.175781,8.80078 -0.601563,0.53125 -1.453125,0.89844 -2.425782,0.88672 -0.511718,-0.004 -1.058593,-0.0977 -1.632812,-0.28906 -0.976563,-0.32422 -1.730469,-0.44141 -2.285156,-0.44531 -0.957032,0.0195 -1.269532,0.28515 -1.503907,0.57421 -0.230468,0.30079 -0.328125,0.78907 -0.324218,1.16797 l 0.01563,0.29297 0.0078,0.11328 c 0.01172,0.2461 0.06641,0.36719 0.210938,0.53907 0.144531,0.16406 0.421875,0.34375 0.820312,0.5 0.796875,0.3125 2.054688,0.46875 3.386719,0.47265 2.054687,0.008 4.324219,-0.3164 5.660156,-0.65625 1.148438,-0.28515 2.378906,-0.35547 3.429688,-0.35156 1.695312,-0.0703 3.320312,0.35156 3.96875,0.48047 0.667968,0.13281 1.519531,0.28125 2.476562,0.42187 1.914063,0.27735 4.265625,0.51953 6.449219,0.52735 1.429687,0.008 2.789062,-0.0937 3.890625,-0.32422 1.105469,-0.22656 1.925781,-0.60938 2.3125,-1.02344 0.976562,-0.96094 -0.21875,-2.51172 -1.289063,-2.39453 -0.226562,-0.008 -0.867187,0.14062 -1.542968,0.32031 -0.6875,0.17578 -1.4375,0.37891 -2.210938,0.38281 -0.304687,0 -0.617187,-0.0352 -0.941406,-0.15625 C 46.5,119.47656 46.171875,119.25 45.941406,118.92188 c -0.328125,-0.45704 -0.511718,-1.01563 -0.507812,-1.55469 0.0039,-0.57813 0.1875,-1.10156 0.433594,-1.60156 0.25,-0.49219 0.578125,-0.98047 0.949218,-1.49219 0.257813,-0.36328 0.667969,-0.81641 1.21875,-1.41406 0.539063,-0.59375 1.203125,-1.3086 1.914063,-2.08204 1.410156,-1.54687 3,-3.35546 4.078125,-4.89453 0.671875,-0.93359 1.113281,-1.8164 1.234375,-2.29687 -0.882813,-1.08985 -1.949219,-2.42188 -2.917969,-3.64844 l 2.074219,-0.496094 c 6.675781,8.484374 10.898437,13.160154 13.746094,15.082034 0.9375,0.64453 1.65625,0.88281 2.023437,0.875 0.253906,-0.008 0.367188,-0.0547 0.546875,-0.20703 0.171875,-0.15625 0.382813,-0.48047 0.5625,-1.00782 0.363281,-1.05078 0.570313,-2.84375 0.574219,-5.2539 0.0078,-1.5 -0.01953,-2.85547 -0.144531,-4.82422 0,0 -4.6875,-4.851564 -6.332032,-6.984376 -0.582031,-0.75 -1.101562,-1.472656 -1.523437,-2.179688 -4.945313,4.277344 -13.367188,5.835934 -19.019531,5.835934 -1.132813,-0.004 -2.207032,-0.0508 -3.183594,-0.125 0.03125,0.9336 0.445312,2.66016 0.96875,4.33985 0.558594,1.80078 1.234375,3.625 1.679687,4.80078 0.300782,0.78125 0.5,1.26172 0.5,1.26172 0.113282,0.27734 0.09375,0.59375 -0.05469,0.85547 -0.0039,0.004 -0.808594,1.42578 -1.695313,2.96875 l -1.890625,-0.66407 h -0.0039 c 0.664063,-1.14453 1.308594,-2.27734 1.640625,-2.85937 -0.214844,-0.54297 -0.601562,-1.53906 -1.03125,-2.73047 -0.550781,0.67969 -1.160156,1.14844 -1.757812,1.53516 -3.253907,2.82812 -4.535157,6.60937 -4.535157,6.60937 0,0 1.8125,0.32031 2.460938,0.5 0.445312,0.0977 0.925781,0.13281 1.136719,0.0898 l 0.101562,-0.0508 c 0.332031,-0.21875 0.382813,-0.39453 0.683594,-0.85546 0.238281,-0.39844 0.871094,-1.48829 1.3125,-2.25391 l 1.890625,0.66797 c -0.441406,0.76172 -0.929688,1.61719 -1.320313,2.27344 -0.402343,0.67968 -0.71875,1.20312 -0.917968,1.49609 -0.0625,0.0898 -0.07422,0.12891 -0.222657,0.27734 -0.390625,0.33203 -0.609375,0.31641 -0.839843,0.3711 -0.226563,0.0312 -0.453125,0.043 -0.695313,0.043 -0.449219,-0.004 -0.949219,-0.0469 -1.414062,-0.10938 -0.472657,-0.0781 -2.089844,-0.40625 -2.398438,-0.40625 -0.503906,0 -1.085937,0.0312 -1.601562,0.0977 -0.519532,0.0625 -0.988282,0.16797 -1.214844,0.26172 -0.382813,0.15625 -0.820313,0.0547 -1.101563,-0.25 -0.273437,-0.3086 -0.332031,-0.75 -0.144531,-1.11719 2.082031,-3.9961 3.796875,-6.125 5.257813,-7.45313 1.464843,-1.32422 2.605468,-1.8164 3.3125,-2.46093 0.429687,-0.38672 0.792968,-0.82813 1.179687,-1.69141 -0.269531,-0.82813 -0.519531,-1.66797 -0.726562,-2.46875 -0.308594,-1.20703 -0.53125,-2.34766 -0.53125,-3.26953 -1.167969,-0.14453 -2.09375,-0.33203 -2.742188,-0.531252 -0.507812,-0.164063 -0.792969,-0.707032 -0.625,-1.214844 0.160156,-0.507813 0.703125,-0.789063 1.210938,-0.628906 0.492187,0.160156 1.488281,0.355468 2.761718,0.5 1.273438,0.148437 2.84375,0.25 4.5625,0.257812 5.378907,0.03516 12.832032,-1.394531 16.933594,-4.605469 -1.445312,0.246094 -2.847656,0.355469 -4.175781,0.347657 h -0.02734 c -8.066406,-0.02734 -13.863281,-4.429688 -17.515625,-9.984375 -3.664062,-5.574219 -5.3125,-12.3125 -5.296875,-17.457032 0.06641,-1.03125 1.835938,-1.125 1.929688,0.0039 -0.02344,4.738281 1.558593,11.207031 4.984375,16.386718 3.445312,5.191407 8.589843,9.082032 15.929687,9.117188 1.722656,0.0078 5.210938,-0.585938 5.945313,-0.753906 0.457031,-0.105469 1.101562,0.25 1.347656,0.8125 0.492187,1.308593 1.964844,3.316406 3.714844,5.296875 1.855468,2.097654 5.707031,5.847654 5.707031,5.847654 0,0 1.539062,1.27734 1.679687,1.35937 0.621094,0.375 0.96875,0.26954 1.109375,-0.67187 0.121094,-0.89453 0.207032,-2.07813 0.238282,-3.57813 0.0039,-0.27343 0.0078,-0.54687 0.01172,-0.8164 0.0078,-2.054687 -0.121093,-4.058593 -0.371093,-6.003906 -0.02734,-0.3125 -0.21875,-0.554687 -0.367188,-0.6875 C 64.269531,88.203125 56.066406,77.835938 53.292969,69.296875 c -0.164063,-0.507812 0.109375,-1.054687 0.621094,-1.21875 0.503906,-0.164062 1.050781,0.113281 1.214843,0.621094 2.445313,7.605469 9.792969,17.136719 20.769532,22.3125 0.382812,0.08594 0.589843,-0.07813 0.488281,-0.589844 C 74.753906,82.558594 71.304688,75.722656 67.582031,70.214844 64.347656,65.421875 60.4375,61.300781 57.78125,58.695313 c 0.476563,-0.527344 1.648438,-2.253907 2.328125,-3.441407 13.21875,9.382813 26.765625,38.351563 19.210938,53.101564 -1.164063,2.04687 -2.976563,1.96875 -4.179688,0.83203 0.109375,2.69922 -0.878906,8.30859 -4.929687,8.14063 h -0.03125 c -1.015625,-0.008 -2,-0.46485 -3.101563,-1.21094 -1.101562,-0.75 -2.332031,-1.82813 -3.742187,-3.25 -1.453125,-1.46875 -3.105469,-3.30469 -4.976563,-5.51172 -2.207031,3.05859 -6.132812,5.68359 -7.277344,6.66406 -1.175781,1.00391 -3.535156,4.06641 -1.476562,3.42969 0.78125,-0.17188 1.585937,-0.33594 1.921875,-0.33984 0.113281,0 1.820312,-0.0156 2.589844,0.98828 0.617187,0.59375 0.898437,1.40625 1.019531,2.34765 v 0.16407 c -0.02734,0.85156 -0.394531,1.6289 -0.949219,2.18359 -0.554687,0.5625 -1.257812,0.94141 -2.046875,1.21484 -1.570312,0.55078 -3.511719,0.71485 -5.542969,0.71094 -3.476562,-0.0156 -7.183593,-0.56641 -9.292968,-0.98437 -0.628907,-0.12891 -2.253907,-0.46485 -3.601563,-0.44922 -0.949219,-0.004 -2.058594,0.0703 -2.953125,0.29687 -1.523437,0.37891 -3.875,0.71875 -6.132812,0.71485 -1.105469,-0.008 -2.179688,-0.0937 -3.144532,-0.31641 -0.960937,-0.23438 -1.84375,-0.58984 -2.492187,-1.29688 -0.417969,-0.45312 -0.691406,-1.08203 -0.707031,-1.75 -0.01563,-0.15234 -0.02734,-0.3164 -0.02734,-0.49609 0.0039,-0.63672 0.125,-1.50391 0.703125,-2.30469 0.574219,-0.80859 1.660156,-1.38672 3.070312,-1.36328 0.820313,0.004 1.761719,0.17578 2.878907,0.54688 0.414062,0.13281 0.757812,0.1875 1.035156,0.1875 0.457031,-0.004 0.753906,-0.1211 1.035156,-0.32032 0.28125,-0.20703 0.535156,-0.52343 0.753906,-0.91796 0,0 3.085938,-4.97657 2.609375,-7.40235 -0.363281,-1.55859 -0.9375,-4.0625 -1.117187,-5.14062 0,0 -0.0625,-0.54297 -0.0625,-0.81641 0.01953,-1.49609 0.550781,-3.089844 1.101562,-4.570312 C 22.371094,93.433594 17.765625,88.035156 15.144531,82.863281 12.453125,77.539063 11.792969,72.941406 11.808594,68.960938 11.8125,67.265625 11.867188,66.214844 12,64.828125 c 0.683594,0.28125 1.117188,0.390625 1.945313,0.5"
         id="path4712" />
      <path
         inkscape:connector-curvature="0"
         style="fill:#545151;fill-opacity:1;fill-rule:nonzero;stroke:none;stroke-linecap:butt;stroke-linejoin:round;stroke-miterlimit:100000"
         d="m 26.726563,46.738281 c -0.605469,1.734375 -2.324219,2.984375 -4.351563,2.976563 -2.519531,-0.01172 -4.558594,-1.960938 -4.550781,-4.359375 0.0039,-1.546875 0.859375,-2.894531 2.136719,-3.667969 -2.316407,0.578125 -4.03125,2.578125 -4.042969,4.960938 -0.0078,2.84375 2.402344,5.152343 5.386719,5.164062 2.96875,0.01172 5.386718,-2.257812 5.421875,-5.074219"
         id="path4714" />
      <path
         inkscape:connector-curvature="0"
         style="fill:#545151;fill-opacity:1;fill-rule:nonzero;stroke:none;stroke-linecap:butt;stroke-linejoin:round;stroke-miterlimit:100000"
         d="m 34.050781,59.929688 -0.01953,0.07813 0.07422,0.117187 c 1.167969,0.632813 2.476562,1.035156 3.347656,1.28125 0.871094,0.242188 1.445313,0.324219 1.445313,0.324219 0.160156,0.03125 0.386718,0.09766 0.605468,0.09766 0.261719,-0.0078 0.453125,-0.05859 0.582032,-0.351562 0.07813,-0.167969 0.445312,-1.335938 0.453125,-3.460938 0,-0.824219 -0.179688,-2.1875 -0.449219,-3.40625 -0.265625,0.02734 -0.535156,0.04687 -0.804688,0.04687 -1.367187,-0.0039 -2.65625,-0.292969 -3.773437,-0.902344 -0.05078,1.40625 -0.382813,3.925782 -1.460938,6.175782 m 8.691407,0.472656 c 0,0.332031 -0.01172,0.675781 -0.04297,1.027344 v 0.01563 l 0.125,0.203125 0.195312,0.04687 h 0.01172 c 4.03125,-0.253907 6.226563,-1.535157 7.566406,-2.5625 0.351563,-0.238282 0.695313,-0.511719 0.671875,-0.722657 l -0.09375,-0.265625 c -0.15625,-0.207031 -3.203125,-4.242187 -6.128906,-5.96875 -0.941406,1 -2.140625,1.75 -3.488281,2.148438 0.367187,1.085937 1.1875,3.957031 1.183594,6.078125 m 10.355468,-4.054688 0.01172,0.01172 0.253906,0.101563 0.203125,-0.07813 c 2.066407,-2.558594 2.644532,-4.160157 3.226563,-6.757813 l 0.03125,-0.132812 0.02734,-0.316407 c -0.0078,-0.351562 -0.08594,-0.691406 -0.496094,-0.820312 l -0.01953,-0.0039 -0.01563,-0.0078 c -0.08203,-0.04687 -1.011719,-0.382812 -2.582032,-0.707031 -1.558593,-0.332031 -3.777343,-0.671875 -6.558593,-0.773438 -0.01172,1.480469 -0.429688,2.855469 -1.148438,4.027344 2.722656,1.558594 5.917969,4.21875 7.066406,5.457031 M 49.78125,45.25 c 2.277344,0.01172 4.519531,0.167969 6.363281,0.496094 l 0.324219,0.03125 c 0.1875,0 0.292969,-0.03906 0.359375,-0.109375 0.06641,-0.07031 0.132813,-0.214844 0.136719,-0.5 l -0.01563,-0.253906 c -0.0039,-0.01172 -0.01172,-0.203125 -0.0625,-0.554688 C 56.734375,43.308594 56.210938,40.875 54.523438,38.464844 54.234375,38.074219 54.050781,37.925781 53.605469,37.914063 l -0.292969,0.01953 c -0.253906,0.04297 -4.765625,1.101562 -7.882812,3.894531 0.800781,0.992188 1.382812,2.179688 1.625,3.484375 0.898437,-0.04297 1.816406,-0.06641 2.726562,-0.0625 m 1.339844,-9.117187 c 0.207031,-0.09375 0.410156,-0.171875 0.539062,-0.25 0.136719,-0.08594 0.160157,-0.140625 0.160157,-0.183594 0.01563,-0.0625 -0.105469,-0.316406 -0.566407,-0.691406 -2.140625,-1.6875 -4.664062,-2.738282 -6.648437,-3.03125 -0.246094,-0.04297 -0.425781,-0.0625 -0.558594,-0.0625 -0.300781,0.0078 -0.402344,0.06641 -0.765625,0.421875 -0.07031,0.07422 -0.574219,0.746093 -1.136719,1.886718 -0.558593,1.136719 -1.191406,2.753907 -1.597656,4.773438 1.417969,0.226562 2.710938,0.835937 3.769531,1.710937 2.675782,-2.652343 5.285157,-3.90625 6.804688,-4.574218 m -10.554688,-4.054688 0.04297,-0.171875 -0.04297,-0.121094 -0.546875,-0.15625 C 36.933594,31.425781 32.441406,34 32.441406,34 c -0.902343,0.503906 -0.613281,1.046875 -0.613281,1.046875 0.03516,0.09766 0.523438,2.113281 2.96875,5.285156 1.199219,-0.835937 2.648438,-1.359375 4.210938,-1.421875 0.164062,-2.738281 1.003906,-5.484375 1.558593,-6.832031 m 5,14.730469 c 0.01172,-3.394531 -2.875,-6.160156 -6.441406,-6.175781 -3.570312,-0.01172 -6.472656,2.734375 -6.484375,6.128906 -0.01172,3.390625 2.871094,6.160156 6.4375,6.171875 3.570313,0.01172 6.472656,-2.730469 6.488281,-6.125 m -20.699218,6.902344 c -1.121094,0.605468 -2.414063,0.882812 -3.777344,0.878906 -0.269531,-0.0039 -0.542969,-0.02344 -0.804688,-0.05078 C 20,55.753906 19.8125,57.113281 19.808594,57.941406 c -0.0078,2.125 0.351562,3.292969 0.425781,3.460938 0.132813,0.296875 0.316406,0.347656 0.578125,0.359375 0.226563,0 0.445313,-0.06641 0.609375,-0.09766 0.0039,0 0.574219,-0.07422 1.449219,-0.308594 0.871094,-0.242188 2.183594,-0.632813 3.347656,-1.257813 l 0.07813,-0.121093 -0.01172,-0.07813 c -1.0625,-2.253907 -1.378906,-4.773438 -1.417968,-6.1875 m -6.050782,0.527343 c -1.34766,-0.410147 -2.542972,-1.167959 -3.47266,-2.175772 -2.9375,1.707031 -6.015625,5.71875 -6.175781,5.925781 l -0.09375,0.265625 c -0.023438,0.210938 0.316406,0.484375 0.664062,0.730469 1.332032,1.035156 3.519532,2.332031 7.550782,2.613281 h 0.0078 l 0.199219,-0.04297 0.128906,-0.203125 v -0.01563 c -0.02734,-0.351563 -0.03906,-0.695313 -0.03906,-1.027344 0.01172,-2.121094 0.859375,-4.984375 1.230468,-6.070313 m -4.445312,-3.464843 c -0.714844,-1.175782 -1.117188,-2.554688 -1.125,-4.035157 -2.78125,0.08203 -4.996094,0.40625 -6.558594,0.722657 -1.574219,0.316406 -2.507812,0.644531 -2.589844,0.6875 l -0.015625,0.01172 H 4.066396 c -0.414062,0.125 -0.496093,0.472657 -0.503906,0.820313 l 0.027344,0.3125 0.027344,0.136719 c 0.5625,2.601562 1.128906,4.207031 3.171875,6.78125 L 6.996094,56.289063 7.25,56.1875 7.261719,56.1797 c 1.15625,-1.234375 4.375,-3.867188 7.109375,-5.40625 M 13.386719,45.1875 c 0.253906,-1.300781 0.839844,-2.484375 1.652344,-3.46875 C 11.941406,38.902344 7.441406,37.808594 7.183594,37.765625 L 6.894531,37.738281 C 6.445313,37.75 6.261719,37.894531 5.96875,38.285156 4.265625,40.683594 3.722656,43.113281 3.5625,44.164063 3.507813,44.511719 3.492188,44.703125 3.492188,44.714844 l -0.011719,0.257812 c -0.00391,0.285157 0.0625,0.429688 0.128906,0.5 0.0625,0.07031 0.171875,0.113282 0.359375,0.113282 l 0.324219,-0.03125 c 1.847656,-0.3125 4.089844,-0.457032 6.367187,-0.445313 0.910157,0 1.828125,0.02734 2.726563,0.07813 m 2.765625,-4.585937 c 1.070312,-0.863282 2.367187,-1.464844 3.792969,-1.675782 -0.394532,-2.03125 -1.015625,-3.652343 -1.566407,-4.789062 -0.554687,-1.148438 -1.054687,-1.824219 -1.121093,-1.898438 -0.363282,-0.359375 -0.460938,-0.417968 -0.761719,-0.425781 -0.136719,0 -0.316406,0.01953 -0.558594,0.05859 -1.992187,0.277344 -4.519531,1.3125 -6.675781,2.980469 -0.464844,0.375 -0.582031,0.628906 -0.570313,0.691406 0,0.04297 0.023438,0.08984 0.160157,0.179687 0.128906,0.07813 0.332031,0.160157 0.535156,0.253907 1.515625,0.683593 4.117187,1.957031 6.765625,4.625 m 5.328125,-1.753907 c 1.5625,0.07031 3.003906,0.601563 4.199219,1.453125 2.46875,-3.160156 2.972656,-5.171875 3.007812,-5.265625 0,0 0.289063,-0.539062 -0.609375,-1.050781 0,0 -4.46875,-2.605469 -7.554687,-2.425781 l -0.550782,0.15625 -0.04297,0.117187 0.04297,0.175782 c 0.542969,1.347656 1.363282,4.101562 1.507813,6.839843 m -0.175781,14.019532 c 3.570312,0.01563 6.472656,-2.730469 6.484375,-6.125 0.01172,-3.394532 -2.871094,-6.160157 -6.4375,-6.175782 -3.570313,-0.01172 -6.476563,2.734375 -6.488282,6.128907 -0.01563,3.394531 2.871094,6.160156 6.441407,6.171875 m 8.953125,-17.453125 c 0,0 -1.285157,3.394531 -3.601563,5.640625 1.917969,1.523437 2.800781,3.800781 3.558594,6 0.773437,-2.195313 1.671875,-4.464844 3.605469,-5.976563 -2.304688,-2.257812 -3.5625,-5.664062 -3.5625,-5.664062 m 0.714843,26.035156 c 2.328125,-3.796875 2.972657,-5.925781 3.171875,-8.132813 -0.523437,-0.101562 -1.660156,-1.6875 -2.28125,-2.785156 -0.621093,-1.097656 -2.609375,-1.226562 -3.242187,-0.03516 0,0 -1.066406,2.101562 -2.113281,2.792969 0,0 0.125,4.304687 2.914062,8.164062 0.605469,0.8125 1.347656,0.425781 1.550781,-0.0039 m 2.875,1.042969 c -0.691406,0.511718 -2.375,2.117187 -3.679687,5.949218 -0.09766,-0.824218 -1.519531,-4.347656 -3.554688,-5.925781 -2.335937,1.042969 -5.027343,1.640625 -7.773437,1.628906 C 8.785156,64.109375 0.660156,56.308594 0.699219,46.722656 0.734375,37.136719 8.914063,29.394531 18.964844,29.433594 c 4.304687,0.01172 8.238281,1.457031 11.34375,3.847656 3.136719,-2.398437 7.109375,-3.824219 11.445312,-3.808594 10.046875,0.03906 18.167969,7.835938 18.132813,17.421875 -0.03516,9.585938 -8.210938,17.328125 -18.265625,17.289063 -2.78125,-0.01172 -5.417969,-0.613281 -7.773438,-1.691406"
         id="path4716" />
      <path
         inkscape:connector-curvature="0"
         style="fill:#545151;fill-opacity:1;fill-rule:nonzero;stroke:none;stroke-linecap:butt;stroke-linejoin:round;stroke-miterlimit:100000"
         d="m 44.523438,46.804688 c -0.605469,1.730468 -2.328125,2.984375 -4.351563,2.976562 -2.523437,-0.01172 -4.5625,-1.960937 -4.554687,-4.363281 0.0078,-1.542969 0.859375,-2.890625 2.140625,-3.664063 -2.320313,0.578125 -4.039063,2.578125 -4.042969,4.960938 -0.01172,2.84375 2.398437,5.152344 5.382812,5.164062 2.96875,0.01172 5.386719,-2.257812 5.425782,-5.074218"
         id="path4718" />
      <path
         inkscape:connector-curvature="0"
         style="fill:none;stroke:#000000;stroke-width:2;stroke-linecap:butt;stroke-linejoin:round;stroke-miterlimit:10;stroke-opacity:1"
         d="m 227.99812,336 c 8.83985,0 16,7.16406 16,16 0,8.83594 -7.16015,16 -16,16 -8.83593,0 -16,-7.16406 -16,-16"
         transform="matrix(1,0,0,-1,-166.795,369.5)"
         id="path4720" />
      <path
         inkscape:connector-curvature="0"
         style="fill:#000000;fill-opacity:1;fill-rule:evenodd;stroke:#000000;stroke-width:0.80000001;stroke-linecap:round;stroke-linejoin:round;stroke-miterlimit:10;stroke-opacity:1"
         d="m 207.99812,352 4,-8 4,8 h -8"
         transform="matrix(1,0,0,-1,-166.795,369.5)"
         id="path4722" />
    </g>
  </g>
</svg>
